# xmcd
#
# Track frame offsets: 
#        150
#        21965
#        43002
#        60007
#        74617
#        89647
#        109295
#        124657
#        142350
#        160422
#
# Disc length: 2401 seconds
#
# Revision: 2
# Processed by: cddbd v1.5.2PL0 Copyright (c) Steve Scherf et al.
# Submitted via: ExactAudioCopy v0.95b4
#
DISCID=94095f0a
DTITLE=Jutta Hipp - At The Hickory House Vol. 2
DYEAR=1956
DGENRE=Jazz
TTITLE0=Gone With The Wind
TTITLE1=After Hours
TTITLE2=The Squirrel
TTITLE3=We'll Be Together Again
TTITLE4=Horacio
TTITLE5=I Married An Angel
TTITLE6=Moonlight In Vermont
TTITLE7=Star Eyes
TTITLE8=If I Had You
TTITLE9=My Heart Stood Still
EXTD=YEAR: 1956
EXTT0=
EXTT1=
EXTT2=
EXTT3=
EXTT4=
EXTT5=
EXTT6=
EXTT7=
EXTT8=
EXTT9=
PLAYORDER=
